<svg id="Сгруппировать_6" data-name="Сгруппировать 6" xmlns="http://www.w3.org/2000/svg" xmlns:xlink="http://www.w3.org/1999/xlink" width="950" height="225.513" viewBox="0 0 950 225.513">
  <defs>
    <clipPath id="clip-path">
      <rect id="Прямоугольник_6" data-name="Прямоугольник 6" width="950" height="225.513" fill="#fff"/>
    </clipPath>
  </defs>
  <g id="Сгруппировать_5" data-name="Сгруппировать 5" clip-path="url(#clip-path)">
    <path id="Контур_139" data-name="Контур 139" d="M422.608,45.139a17.467,17.467,0,0,1,6.944,2.329c3.236,2.419,3.451,6.012-4.025,8.982-1.693.673,4.983,12.1,7.811,12.581,4.936.832,10.579-7.031,12.086-10.753a22.88,22.88,0,0,0-8.085-27.415c-6.391-4.58-13.562-5.422-21.124-4.273a42.573,42.573,0,0,0-14.95,5.477A34.257,34.257,0,0,1,382.491,36.4a103.249,103.249,0,0,1-21.205-2.742c-2.13-.523-4.286-.964-6.452-1.307-2.128-.338-2.939.355-2.908,2.54.035,2.509.171,5.023.41,7.521.436,4.564.457,5.315,6.152,5.637,2.352.133,4.714.093,7.063.235,1.752.105,2.727.422,3.321,1.24a20.581,20.581,0,0,1,.948,4.6c.184,4.328.408,8.655.521,12.986a385.252,385.252,0,0,1-1.348,41.429c-.1.855-.2,1.709-.314,2.561-.379,2.966-.507,6.123-2.279,8.614-.292.008-.571.006-.879.026a11.433,11.433,0,0,1-3.554-.492c-1.9-.492-4.13-1.644-6.137-1.316a7.151,7.151,0,0,0-1.13,4.109q-.27,1.357-.463,2.729a5.928,5.928,0,0,0-.248,1.97c-.032.267-.072.533-.1.8-.258,2.256.27,3.062,2.456,3.509a30.818,30.818,0,0,0,5.817.8c6.027.052,12.054.053,18.081.046a75.8,75.8,0,0,0,8.885-.035c1.421-.174,4.772-.34,5.7-1.345a2.152,2.152,0,0,0,.4-1.382q.119-2.358.236-4.718a9.791,9.791,0,0,0-.093-2.543A5.047,5.047,0,0,0,390.48,118a11.2,11.2,0,0,1-2.8.091,3.557,3.557,0,0,1-2.433-3.07c-.271-1.944.219-4.043.107-6.041-.139-2.43-.11-4.884-.128-7.319a373.053,373.053,0,0,1,1.591-37.317c.346-3.731.806-7.619,2.87-10.745a8.277,8.277,0,0,1,1.953-2.04,20.372,20.372,0,0,0,3.862-1.021c2.186-.667,4.694-1.912,6.985-1.912,2.62-.084,5.29-1.149,7.875-1.615,4.577-.827,5.018-2.7,12.243-1.875" transform="translate(184.222 13.678)" fill="#fff" fill-rule="evenodd"/>
    <path id="Контур_140" data-name="Контур 140" d="M483.388,123.6a2,2,0,0,0-.957-1.537c-.885-.353-3.277.42-4.243.558-2,.283-4.027.759-6.056,1.213a5.345,5.345,0,0,1-.446-1.662c-1.092-6.814-2.244-13.626-3.108-20.471-.882-7-1.662-14.03-2.1-21.071-.623-9.906-.874-19.836-1.338-29.752a8.841,8.841,0,0,1,.158-1.153c1.047-1.047,2.7-1.434,3.528-2.922a5.387,5.387,0,0,0,1.024-3.571,6.146,6.146,0,0,0,.148-1.4,2.264,2.264,0,0,0-3.135-2.348,19.474,19.474,0,0,0-2.424.9A105.882,105.882,0,0,0,424.762,69.5a241.672,241.672,0,0,0-29.795,43.946c-3.344,6.239-6.138,12.712-7.188,19.808-1.027,6.941-.527,13.694,3.056,19.857A25.047,25.047,0,0,0,421.442,163.3a18.886,18.886,0,0,0,9.4-7.544c.069-.091.145-.174.21-.268a2.091,2.091,0,0,0,.291-.614c.2-.378.411-.751.591-1.155,2.118-4.735-5.282-8.649-8.437-10.457a26.054,26.054,0,0,0-3.367-1.851c-1.795-.687-1.213-.917-2.732.407-1.161,1.012-1.242,2.116-2.727,2.666a6.405,6.405,0,0,1-4.324-.483,10.383,10.383,0,0,1-4.276-3.745,4.082,4.082,0,0,1-.606-1.185,4.781,4.781,0,0,1,.026-1.988,38.272,38.272,0,0,1,2.3-7.471c3.772-10.306,7.637-20.573,12.267-30.533,1.784-3.838,3.876-7.523,5.74-11.307,1.645-3.339,4.672-6.429,7.064-9.3A80.071,80.071,0,0,1,445.537,65.9c1.022-.78,3.25-2.952,4.668-2.917.541.012.964.347,1.158,1.2a14.142,14.142,0,0,1-.03,4.353.69.69,0,0,1-.155-.119c0,12.969-.215,26.533.591,39.3.107,5.974.26,11.949.341,17.922l0,.059c-.027.46-.059.87-.1,1.175-2.095,1.269-2.922.827-4.962,1.488-3.879,1.306-5.193.218-5.244,2.319-.434.375-.434.941-.268,2.108q.313,2.214.705,4.417c.478,2.718,1.647,3.368,4.33,2.468,1.263-.424,2.523-.87,3.81-1.2a101.757,101.757,0,0,1,17.415-2.657c3.909-.32,7.829-.509,11.744-.757,1.853-.117,2.337-.451,2.783-2.243.59-2.36,1.132-4.732,1.609-7.116.256-1.28.2-1.761-.539-2.095" transform="translate(202.745 20.596)" fill="#fff" fill-rule="evenodd"/>
    <path id="Контур_141" data-name="Контур 141" d="M396.495,146.822a3.484,3.484,0,0,0-1.994-2.756l-.027-.021c-1.056-.788-6.763,1.912-7.826,2.613a14.573,14.573,0,0,0-3.484,3.164,6.71,6.71,0,0,0-1.106,1.415c-.323.751-.541,1.546-.8,2.32-.163.5-.283,1.3-.728,1.624a1.523,1.523,0,0,1-.629.244c-4.132-1.144-10.439-4.555-10.94-10.9-.006-.18-.006-.36-.026-.539-.026-.247-.032-.489-.053-.734-.008-.114-.012-.222-.024-.326a17.109,17.109,0,0,1-.009-3.009,38.953,38.953,0,0,0-.023-6.065c-.178-3.373-.357-6.746-.411-10.122-.116-7.183.26-14.371.862-21.527.445-5.293,1.047-10.573,1.729-15.841.972-6.21,2.235-13.981,2.127-16.205l0,.006a25.688,25.688,0,0,1,.343-4.2c.474-2.275.658-2.409,2.931-2.549q2.7-.169,5.411-.221a1.821,1.821,0,0,0,2.073-1.763c.267-2.654.564-5.308.739-7.969a3.064,3.064,0,0,0-.061-.74l.009.008a.251.251,0,0,1,.027.1.789.789,0,0,0-.006-.085c.015.015.037.024.05.04a.415.415,0,0,0-.072-.352,1.534,1.534,0,0,0-.859-1.254,3.794,3.794,0,0,0-1.982-.329c-.777.046-1.537.232-2.311.308l-2.756.27-4.785.471-5.3.521-4.284.42c-.574.056-1.175.172-1.752.172a34.765,34.765,0,0,0-4.357.606,35.946,35.946,0,0,1-5.168-.239,21.839,21.839,0,0,0-2.186-.111,6.046,6.046,0,0,0-2.064.486,1.093,1.093,0,0,0-.288.139.934.934,0,0,0-.186.2l-.009.017c-.428.285-.579.85-.573,1.811.009,1.412.171,2.823.187,4.235a2.08,2.08,0,0,0,1.557,2.107,9.773,9.773,0,0,0,2.529.378c1.313.059,2.629.015,4.18.015.064,1.1.174,2.011.161,2.924-.091,6.123-.189,12.246-.325,18.368-.027,1.2-.009,2.07-.041,2.715-4.5,1.123-14.645.516-18.9-.676-.722-.2-1.449-.382-2.177-.558-1.062-.553-2.081-1.214-3.088-1.8a11.037,11.037,0,0,0-1.041-.516,8.723,8.723,0,0,1-1.415-2.913c-.026-.111-.035-.224-.053-.335.2-1.283.376-2.567.492-3.857.536-6.018,2.593-11.354,2.815-17.386.212-5.769-.108-13.443-3.231-18.341-4.5-7.058-13.559-9.167-22.029-8.743-8.838.44-16.646,6.776-18.576,15.134-.908,3.929-.8,9.394,1.35,12.921,1.682,2.761,3.184,2.794,5.871,1.286,2.637-1.478,5.212-3.257,6.737-5.945a1.239,1.239,0,0,0,.222-.777c-2.11-1.7-3.751-4.237-1.889-6.751,3.361-4.538,10.049.395,12.435,3.5a4.535,4.535,0,0,1,.882,1.648c.643,2.814,1.667,5.644,1.688,8.475.02,2.576-.09,5.157-.264,7.736-.171,2.512-.4,5.024-.632,7.531-.553,6.016-1.213,12.028-2.04,18.012-.917,6.655-1.9,13.3-2.9,19.942a88.183,88.183,0,0,1-1.479,9.392c-.337,1.269-1.138,5.232-2.377,5.64a1.358,1.358,0,0,1-.686-.006c-1.292-.254-2.509-.817-3.8-1.045a3.923,3.923,0,0,0-3.653.948,4.652,4.652,0,0,0-.6.957c-.954,1.878-2.562,5.783-1.941,7.989.5,1.778,2.6,1.718,4.191,2,4.778.839,9.572,1.622,14.283,2.8a64.086,64.086,0,0,1,7.352,2.236c1.359.518,3.537,1.482,4.954.675,1.062-.606,1.463-2.288,1.638-3.757.181-.925.158-2.1.259-2.762.166-2.095.827-3.143.385-5.625-.158-.9-3.859-1.184-4.6-1.316-.221-.04-.434-.082-.654-.123-1.339-2.253-.328-5.728.088-8.1a19.1,19.1,0,0,0,.809-2.482c-.221-3.088,1.875-9.153,2.316-12.847a83.586,83.586,0,0,1,1.987-11.041c8.833,2.133,17.7,2.537,26.767,2.652,0,1.175,0,2.1,0,3.023-.027,9.89-.221,19.785-.008,29.67a67.349,67.349,0,0,0,1.642,12.573,32.145,32.145,0,0,0,8.772,16.368c6.869,6.836,18.288,8.269,26.179,2.38a18.434,18.434,0,0,0,6.607-9.4,12.341,12.341,0,0,0-.148-8.029c-.008-.064,0-.128-.011-.19" transform="translate(149.834 16.48)" fill="#fff" fill-rule="evenodd"/>
    <path id="Контур_142" data-name="Контур 142" d="M210.343,96.468A95.888,95.888,0,0,0,201.2,75.014a91.659,91.659,0,0,0-13.748-18.367,99.107,99.107,0,0,0-16.517-13.736,7.865,7.865,0,0,1,.893.571c-1.862-1.537-10.113-7.489-23.725-13.373-1.616-.7-6.86-2.6-8.534-3.114a112.371,112.371,0,0,0-12.444-3.207,24.823,24.823,0,0,0-4.65-.28c-9.069-.7-24.791-1.333-36.681-.946a3.166,3.166,0,0,1-.341-1.094,16.387,16.387,0,0,1-.314-1.953c-.283-3.7-.509-7.413-.832-11.112a25.167,25.167,0,0,0-.751-4.583,3.947,3.947,0,0,0-1.176-1.913.344.344,0,0,0-.1-.136c-.008,0-.021,0-.029,0a3.964,3.964,0,0,0-1.016-.579C79.586-.323,76.89-.172,74.422.431l0,0c-.571.139-1.124.3-1.656.477-.593.16-1.143.3-1.245.335a8.436,8.436,0,0,0-.836.306,3.913,3.913,0,0,1-1.647.44,9.373,9.373,0,0,0-1.254.032c.023,0,.053-.014.075-.015-.2.015-.5.049-.836.1l-.026,0a13.028,13.028,0,0,0-3.083.81c-.9.168-1.787.594-2.625.818-1.05.282-2.159.4-3.225.6q-3.268.6-6.519,1.283A23.359,23.359,0,0,1,47.68,5.8c-.343.107-1.813.443-2.156.551-.539.474-1.056.977-1.619,1.417a5.165,5.165,0,0,0-.727.689A3.532,3.532,0,0,0,42.147,10.4c-.018.11-.008.224-.018.337a4.739,4.739,0,0,0-.032.591c0,.238.021.475.046.715.008.062.012.123.021.186a14.732,14.732,0,0,0,.673,2.729c.267.8.583,1.591.925,2.367.073.18.129.369.207.547.652,1.493,1.243,2.907,1.807,4.3.533,1.517,1.077,3.061,1.732,4.531.117.328.239.651.355.981a2.7,2.7,0,0,1,.346.827c-.673.209-.833.3-1.493.509-4.86,1.537-9.8,2.869-14.561,4.657-8.1,3.042-15.486,7.334-21.476,13.73C4.639,53.85.61,61.259.061,70.24A27.037,27.037,0,0,0,1.5,81.2a31.945,31.945,0,0,0,5.683,9.077,25.139,25.139,0,0,0,2.154,2.364c.52.488,1.077.937,1.642,1.371A42.5,42.5,0,0,0,16.137,97.4c1.511.844,3.161,2.169,4.846.908,1.29-.966,2.182-3.411,3.067-4.773.789-1.214,1.654-2.39,2.4-3.632,1.912-3.161,5.306-6.842,6.374-10.344,1.082-3.544-3.28-3.813-5.126-5.644a11.577,11.577,0,0,1-3.082-5.983,16.424,16.424,0,0,1,3.3-13.215c5.614-6.97,15.509-8.37,23.46-11.626.232-.094.475-.171.73-.247l1.031.216a55.091,55.091,0,0,1,1.656,5.791L58.41,61.289A669.451,669.451,0,0,1,80.5,210.242q-2.169-.032-4.331-.123c-2.541-.11-5.145-.43-7.7-.314-4.79-.5-9.581-1.033-14.369-1.563-3.481-.387-4.916.658-4.8,4.153a62.451,62.451,0,0,0,1.147,9.255c.416,2.259,1.431,2.994,3.733,3.2a162.342,162.342,0,0,0,26.749.213c4.244-.321,8.493-.628,12.718-1.133,3.746-.448,7.479-1.063,11.185-1.779,5.411-1.048,10.792-2.268,16.193-3.376a14.791,14.791,0,0,1,2.316-.114l8.592-2.674c.5-.977,1.527-1.106,2.4-1.441,5.823-2.233,11.556-4.669,17.166-7.4a147.356,147.356,0,0,0,25.963-16.035,95.881,95.881,0,0,0,24.756-27.72A83.714,83.714,0,0,0,212.852,131.9a86.206,86.206,0,0,0,.254-21.153,91,91,0,0,0-2.764-14.283M170.883,81.32a82.46,82.46,0,0,1,7.268,19.322c3.425,14.439,4.017,28.937.152,43.422a64.54,64.54,0,0,1-11.083,22.454,119.34,119.34,0,0,1-27.305,25.843c-4.4,3.064-9.4,5.233-13.774,8.28-2.168.958-4.43,1.869-6.833,2.729q-1.4.473-2.815.916-1.634.512-3.277.981c-1.808.518-3.6,1.05-5.419,1.523-2.217.2-3.94.079-4.368-.684-2.108-3.768-6.65-77.313-7.048-86.232-.213-4.787-.478-9.57-.83-14.348Q94.759,94.763,93.8,84.012c-.526-5.907-1.091-11.811-1.781-17.7C91.285,60,90.4,53.7,89.535,47.4c-.417-3.03-.932-6.047-1.4-9.069-.044-.288-.035-.585-.066-1.222,1.709-.027,3.248-.094,4.785-.07a102.407,102.407,0,0,1,35.162,6.665,83.559,83.559,0,0,1,31.068,20.934,73.808,73.808,0,0,1,11.8,16.677M52.241,42.8a.467.467,0,0,1-.078.024l.078-.024m.288.043a.318.318,0,0,0-.128-.091l.251-.073a.335.335,0,0,0-.123.165m.36-.235c.113-.034.206-.058.328-.1l.015.062Z" transform="translate(0 0)" fill="#fff" fill-rule="evenodd"/>
    <path id="Контур_143" data-name="Контур 143" d="M579.635,93.237c-1.048-.606-1.214-1.047-2.261-1.434l-7.06-4.8c-.606-.606-3.528-2.922-4.135-3.309a41.01,41.01,0,0,0-4.191-3.749c-1.434-1.213-2.261-2.867-4.522-2.7-1.654.219-2.923,2.537-3.751,3.749-.987.989-3.786,3.251-2.2,4.2l0,0c.1.6,3.437,3.173,3.778,3.478,1.776,1.575,1.134,2.1.168,4.011-1.036,2.049-2.943,3.062-4.692,4.464q-2.742,2.2-5.424,4.474-2,1.7-3.972,3.445c-1,.885-2.146,2.448-3.463,2.776a3.7,3.7,0,0,1-2.153-.082,2.611,2.611,0,0,1-.8-.472,2.4,2.4,0,0,1-.724-1.307c.184-2.057.955-4.49,1.149-5.794.477-3.222.9-6.453,1.516-9.654l2.48-15.552c0-1.654.663-3.307.827-5.183a1.446,1.446,0,0,1-.265.066q.894-5.937,1.779-11.875c.687-4.578,1.3-9.168,1.98-13.748.405-2.729.55-2.825,3.207-2.975,2.43-.137,4.863-.248,7.288-.445,1.932-.157,2.773-.526,3.2-1.83a3.906,3.906,0,0,0,.332-1.722c.139-1.018.251-2.04.369-3.061a11.856,11.856,0,0,0,.329-2.91q.247-2.484.457-4.968c.143-1.732-.344-2.13-2.064-1.9-1.789.236-3.553.638-5.335.928a301.314,301.314,0,0,1-37.759,3.207,11.414,11.414,0,0,0-2.331.233,2.6,2.6,0,0,0-2.249,2.869c.044,2.275.256,4.545.379,6.818a1.653,1.653,0,0,0,.794,1.429c.02.146.03.294.053.439.814,1.409,9.024.849,12.288,1.2a4.8,4.8,0,0,1,.256,1.22A36.352,36.352,0,0,1,523.131,47c-.047,4.866-.088,9.735-.245,14.6-.293,9.1-.579,18.2-1.033,27.3-.317,6.342-.843,12.675-1.394,19-.634,7.268-1.26,14.542-2.144,21.783-1,8.208-2.267,16.385-3.428,24.574a3.616,3.616,0,0,1-.187.358c-.014.021-.037.034-.05.055l.081-.221c-1.435.166-3.751-.661-5.184-.882-1.2-.239-3.428-.884-4.5-.131a2.622,2.622,0,0,0-.582.579,6.677,6.677,0,0,0-.7,1.29c-.175.393-.337.792-.506,1.187a14.889,14.889,0,0,0-2.232,6.165l-.945,1.85c1.222,1.641,2.71,1.866,4.33,1.965,5.088.311,10.2.481,15.245,1.137,3.716.481,7.342,1.642,11.01,2.492,1.61.373,1.985.261,2.556-1.185a55.892,55.892,0,0,0,1.886-5.561,1.326,1.326,0,0,0-.055-.679,10.848,10.848,0,0,0,.521-2.422c.1-1.312-.539-1.65-1.793-2.081a2.917,2.917,0,0,0-1.941-.174,7.972,7.972,0,0,0-2.558-1.155c-.48-.122-.964-.244-1.453-.331a4.367,4.367,0,0,0-.623-.34,6.348,6.348,0,0,0-3.233-.178,1.54,1.54,0,0,1-.82-.2l-.006-.006c1.383-7.066,5.264-22.819,6.022-24.014.218-.344,1.475,1.627,1.51,1.661a15.778,15.778,0,0,1,3.909,7.2c.785,3.021.809,6.228,1.213,9.292.471,3.559.6,6.962,1.632,10.449,2.438,8.277,7.168,14.363,15.7,17.034,7.75,2.425,17.078.079,22.5-6.073,3.053-3.49,4.7-7.742,1.528-11.7a23.342,23.342,0,0,0-5.116-4.394c-.407-.28-.707-.629-1.194-.637-.437-.008-.864.731-1.338.378a.769.769,0,0,1-.232-.395c-.728-2.127-1.929-1.9-3.8-1.47a2.382,2.382,0,0,0-1.6.855,1.918,1.918,0,0,0-.206,1.123c.055.913.356,1.8.41,2.712a2.571,2.571,0,0,1-1,2.407,2.876,2.876,0,0,1-1.613.288c-.574-.027-1.146-.011-1.712.009a12.234,12.234,0,0,1-2.684-2.8c-2.939-4.22-3.9-8.763-3.722-13.9a34.217,34.217,0,0,0-.387-6.751,24.647,24.647,0,0,0-.776-4.423,13.634,13.634,0,0,0-3.015-6.165,16.854,16.854,0,0,0-5.056-3.9c-2.884-1.428-3.512-2.835-.958-5.041,2.728-2.36,5.99-3.982,8.967-5.986,3.425-2.3,6.872-4.567,10.306-6.856,1.7-1.133,3.518-2.194,5.126-3.452,2.476-1.938,4.138.478,5.929,2.133a10.814,10.814,0,0,0,2.119,1.653,3.642,3.642,0,0,0,2.6.427,2.162,2.162,0,0,1,.687-.133c1.525.11,2.169,1.408,3.208-.254a8.447,8.447,0,0,0,.449-.83.265.265,0,0,0,.1,0,27.693,27.693,0,0,0,2.94-6.7,3.931,3.931,0,0,0,.2-1.152c-.047-2.477-4.526-1.947-6.158-3.141m-69.1-52.872.008.05a.413.413,0,0,1-.008-.05m.064.21h0a8.049,8.049,0,0,0,2.751.44,8.049,8.049,0,0,1-2.751-.44m-8.934,120.49.222-.526c.189-.238.387-.466.582-.7q-.411.8-.818,1.6a2.031,2.031,0,0,1,.014-.379" transform="translate(261.78 12.759)" fill="#fff" fill-rule="evenodd"/>
    <path id="Контур_144" data-name="Контур 144" d="M281.443,75.234a17.471,17.471,0,0,0-5.311-3.271c-4.447-2.265-9.452-2.626-14.767-1.68a34.391,34.391,0,0,0-19.415,10.8c-6.58,7.04-11.165,15.309-14.823,24.142-.4.955-.763,1.921-1.137,2.885.032-.538.1-1.065.1-1.4-.027-1.647-.015-3.294.008-4.941.046-3.184.149-6.368.149-9.554,0-12.462-.166-24.263.221-36.725.175-3.769,1.251-9.793,1.274-14.3A9.35,9.35,0,0,0,228.3,38.9c.062-.644-.055-1.432-.647-1.693-.815-.358-2.364-.166-3.266-.261-.881-.09-1.758-.21-2.639-.294a48.833,48.833,0,0,1-4.857-.8c-1.808-.353-3.728-.209-5.561-.556a18.206,18.206,0,0,0-5-.622,3.472,3.472,0,0,0-2.849,2.7,7.994,7.994,0,0,0,.154,2.462c.113,4.372.457,8.722.847,13.073q.295,4.833.58,9.668c.046,3.07.026,6.147.165,9.2.326,7.2,1.278,14.36,1.193,21.56-.015,1.318-.015,2.645,0,3.973-.064-.155-.123-.309-.189-.468a27.985,27.985,0,0,0-1.554-4.4,28.7,28.7,0,0,0-2.482-6.01,34.872,34.872,0,0,0-6.84-9.761c-.381,0-.695.012-1,.006.123-.133-.091-.006,1-.006-1.449-2.9-7.332-6.13-11.292-7.854a25.288,25.288,0,0,0-10.911-2.866c-8.857-.219-15.82,3.97-21.4,10.573a23.122,23.122,0,0,0-5.574,15.865c.117,5.382,2.582,11.341,6.842,14.759,3.365,2.7,4.1,1.661,6.181-1.683,1.671-2.69,6.123-10.648,6.1-10.818-.178-.471-.25-1.45-.431-1.921-10.354-10.638,8.385-20.366,15.533-9.1A33.954,33.954,0,0,1,185.233,95.5a79.365,79.365,0,0,1,.992,19.478c-.035.664-.181,1.324-.289,2.086-.791,0-1.333-.017-1.874,0-3.25.119-4.5,1.094-5.373,4.209a17.527,17.527,0,0,0-.469,2.066c-.376,2.463.242,3.475,2.608,4.231.585.187,1.589.241,2.055.663,1,.906.094,2.313-.157,3.342-.2.807-.373,1.619-.548,2.431-.431,1.993-.859,3.985-1.385,5.957-1.06,3.978-2.462,8.35-5.445,11.335-3.339,3.344-7.872,3.032-11.894,1.109-.317-.151-.628-.315-.938-.483q-1.069-.989-2.049-2.069c-1.149-1.268-1.848-2.942-2.863-4.159a2.441,2.441,0,0,0-2.963-.722,2.877,2.877,0,0,0-2.835.442,28.1,28.1,0,0,0-8.059,9.1c-1.853,3.3-1.531,4.57,1.542,6.734a51,51,0,0,0,22.66,9.286c8.339,1.126,15.8-.989,21.745-7.137a54.438,54.438,0,0,0,6.394-8.109,66.652,66.652,0,0,0,9.156-22.552c.073-.346.061-.683.343-.931a.784.784,0,0,1,.82-.163.444.444,0,0,1,.2.3,1.6,1.6,0,0,0-.166.324,9.343,9.343,0,0,0-.343,2.361c-.052.807-.136,1.615-.2,2.422q-.4,2.674-.81,5.344c-.608,3.95-1.24,7.9-1.961,11.828a28.691,28.691,0,0,1-2.6,7.272,3.782,3.782,0,0,1-3.571,2.485c-.446-.093-.9-.2-1.376-.324a5.375,5.375,0,0,0-1.61-.172c-.331-.064-.663-.123-.992-.19a1.924,1.924,0,0,0-2.421,1.345c-.779,2.235-1.533,4.479-2.285,6.723-.591,1.761-2.45,4.58.372,5.015l6.882,1.063c1.63.251,3.262.5,4.9.673,3.245.338,6.47.289,9.7.632q3.487.373,6.982.672c1.371.119,4,.876,5.21-.1,2.451.282,2.523-.5,3.312-8.294,0-1.434.827-2.7.44-3.694a4.37,4.37,0,0,0-1.933-.381l-.009-.061c-.881-.062-1.7-.122-2.509-.178l-.346-.649a3.63,3.63,0,0,1-.442.559,1.416,1.416,0,0,1-1.3-1.047,2.9,2.9,0,0,1,.088-.561c.608-1.874.827,1.048,1.048-4.356.221-3.088-.221-6.837.827-9.925a16.466,16.466,0,0,0,.209-2.471,2.116,2.116,0,0,0,.2-.145c.16.206.3.312.34.449.2.678.379,1.36.55,2.046,2.435,9.819,6.968,18.495,14.357,25.482a33.712,33.712,0,0,0,12.936,7.849c3.959,1.658,8.477,1.805,12.873,1.805a25.6,25.6,0,0,0,13.9-4.962c7.665-6.012,9.54-14.945,8.934-24.043-.221-3.749-.606-2.316-.606-3.97a1.408,1.408,0,0,0-.265-.806,22.575,22.575,0,0,0-2.878-5.2c-.827-1.048-3.088-4.136-4.136-4.136l-.064-.017a13.363,13.363,0,0,0-4.182-2.916c-1.569-1.088-3.029-1.764-3.807-1.3a3.6,3.6,0,0,0-1.229,1.642c-1.062,2.124-2.063,4.279-3.093,6.418q-.779,1.62-1.562,3.24a22.927,22.927,0,0,0-1.389,3.122q-.121.4-.218.8a2.262,2.262,0,0,0,.59,2.337c.634.567,1.377.993,2,1.583a12.926,12.926,0,0,1,3.158,4.669,12.275,12.275,0,0,1,.494,1.571,6.273,6.273,0,0,1-.14,3.982c-1.272,2.863-4.287,3.484-7.1,3.329a13.639,13.639,0,0,1-4.915-1.849c-1.479-.935-2.939-1.907-4.474-2.739-.093-.05-.181-.1-.274-.155a12.285,12.285,0,0,1-1.219-1.156,24.891,24.891,0,0,1-2.4-2.555,25.029,25.029,0,0,1-1.926-3.521,44.377,44.377,0,0,1-3.065-10.145,58.948,58.948,0,0,1-.887-6.3c.038-3.4.2-6.795.236-10.19a89.678,89.678,0,0,1,2.788-20.719A61.314,61.314,0,0,1,253.9,91.535c2.876-4.187,7.66-9.977,12.7-5.346a7.342,7.342,0,0,1,2.2,3.144c.969,3.176-5.535,7.028-.817,9.375.041.02.085.035.126.055a3.386,3.386,0,0,0,.5.385.687.687,0,0,1-.239-.271,23.271,23.271,0,0,0,8.565,2.2,23.65,23.65,0,0,0,4.688-.184,27.06,27.06,0,0,0,2.925-.469,7.668,7.668,0,0,0,2.34-1.126,2.316,2.316,0,0,0,1.286-1.076,2.957,2.957,0,0,0,.1-.3c0,.1,0,.2,0,.3l.44-1.875c.166-8.713-.661-15.11-7.278-21.12m2.371,75.905c.008-.03.008-.061.014-.091l.117.146-.131-.055m-3.431-5.678c-.088-.1-.172-.2-.25-.292-.117-.146-.242-.288-.361-.434a3.953,3.953,0,0,1,.611.727m7.7-55.355.038.113c.015.472.018.858.029,1.053,0,.049,0,.1,0,.148-.023-.437-.05-.874-.072-1.313" transform="translate(74.649 18.134)" fill="#fff" fill-rule="evenodd"/>
    <path id="Контур_145" data-name="Контур 145" d="M320.071,139.589c-3.425-2.281-5.524.355-9.65.346.044-4.545.293-9.255.7-13.813l1.295-13.365a2.7,2.7,0,0,0-.233.326c.011-.1.023-.2.034-.3.591-2.981.862-6.094,1.44-9.109.311-2.988.972-6.354,1.232-9.289l1.664-8.94c.067-1.051.248-2.107.408-3.161.254-.748.512-1.495.8-2.223a19.938,19.938,0,0,1,.92-2.176A1.777,1.777,0,0,1,319.989,77a16.241,16.241,0,0,1,3.835-.338,4.762,4.762,0,0,0,2.954-1.781,7.03,7.03,0,0,0,1.563-3.5,20.818,20.818,0,0,0,.192-3.874c-.012-1.062.239-2.928-.419-3.85a2.191,2.191,0,0,0-1.594-.737c-2.4-.273-4.938.871-7.223,1.5a35.341,35.341,0,0,1-5.8,1.031c-4.851.486-9.726.852-14.508,1.8a10.458,10.458,0,0,0-2.7.82A3.843,3.843,0,0,0,294,71.251c-.076,1.21-.046,2.428,0,3.638.046,1.306.12,2.613.256,3.912a5.267,5.267,0,0,0,.41,2.188,5.515,5.515,0,0,0,1.17,1.068,9.078,9.078,0,0,1,3.033,5.9,15.721,15.721,0,0,1,.035,3.469,19.737,19.737,0,0,0-.35,3.094,34.413,34.413,0,0,1-.529,6.056c-.52,4.628-.945,9.27-1.706,13.867-.328,1.973-.718,3.935-1.2,5.876-1.149,4.607-3.134,10.049-6.587,13.728a8.369,8.369,0,0,0-1.47,1.275c-.1.113-.2.229-.294.343-4.385,3.339-11.636,4.305-16.389,1.545a14.528,14.528,0,0,1-6.621-10.611,36.437,36.437,0,0,1,.606-14.7,49.161,49.161,0,0,1,2.412-6.242,73.613,73.613,0,0,1,5.375-10.78,25.8,25.8,0,0,0,3.478-10.617,18.132,18.132,0,0,0-.116-5.242l.009-.014c.149.041.2.219.228.372.091.541.216,3.533.379,4.455a18.958,18.958,0,0,0-.451-7.253,19.824,19.824,0,0,0-.966-3.653,12.467,12.467,0,0,0-2.954-4.477,11.678,11.678,0,0,0-.949-1.333c-2.514-3-6.655-4.394-10.5-4.709-.236-.04-.471-.085-.708-.116s-.5-.044-.757-.067c-.288-.16-.573-.326-.861-.5a5.73,5.73,0,0,0-3.991-.783,23.814,23.814,0,0,0-6.328,1.61,18.791,18.791,0,0,0-4.825,3.01c-1.738,1.51-1.722,4.529-.638,6.412a6,6,0,0,1,.963,1.913c.052.315.061.7.343.855a.831.831,0,0,0,.387.07l2.977.049c-.183.792-1.063,1.176-1.61,1.778a3.3,3.3,0,0,0-.58,2.986c.25,1.007,1.039,3.169,2.256,3.3a2.167,2.167,0,0,0,1.394-.475c3.352-2.258,4.874-6.169,9.356-6.348,2.564-.1,5.024.088,5.829,2.916.632,2.218.072,4.764-1.045,7.278-.318.515-.638,1.03-.9,1.574a7.545,7.545,0,0,0-.414.983c-.171.293-.341.585-.521.873-1.231,1.368-3.146,4.42-4.33,5.651a75.742,75.742,0,0,0-5.232,5.894c-1.568,2.089-3.275,4.162-4.653,6.408-.526.815-1.034,1.644-1.5,2.511-8.839,16.444-.154,40.331,21.45,43.577a32.811,32.811,0,0,0,16.659-1.758,64.243,64.243,0,0,0,8.547-4.583c1.842-1.053,3.368-3.928,5.189-4.438.366,3.42-1.168,8.029,1.849,10.673,1.412,1.239,2.689.442,4.292.67,1.766.251,3.521,1.309,5.4,1.677a9.948,9.948,0,0,0,1.511.216,7.25,7.25,0,0,0,4.106-1.3c1.392-.844,2.875-.932,4.449-1.336,1.737-.446,1.892-.681,1.833-2.435a36.912,36.912,0,0,0-.245-4.135,34.19,34.19,0,0,0,.113-7.428m-10.224,3.528c-.03-.012-.065-.011-.1-.024.031.014.066.012.1.024m-.216-.652h0c.047-.058.181-.017.3-.414-.114.4-.248.357-.3.414m5.835-2.566c-1.577-.277-3.854.364-5.381.832a7.793,7.793,0,0,1-.108,1.108,7.619,7.619,0,0,0,.107-1.108c1.528-.468,3.806-1.109,5.382-.832" transform="translate(126.393 31.861)" fill="#fff" fill-rule="evenodd"/>
    <path id="Контур_146" data-name="Контур 146" d="M531.807,67.157c.417-.672.836-1.341,1.281-1.985a20.1,20.1,0,0,1,1.389-1.91,1.773,1.773,0,0,1,1.475-.571,16.343,16.343,0,0,1,3.812.541,4.755,4.755,0,0,0,3.282-1.063,7.039,7.039,0,0,0,2.317-3.056,20.944,20.944,0,0,0,1.065-3.729c.229-1.037.9-2.8.466-3.845a2.187,2.187,0,0,0-1.385-1.079c-2.278-.812-5.008-.273-7.375-.178a35.259,35.259,0,0,1-5.885-.312c-4.835-.628-9.665-1.379-14.539-1.54a10.449,10.449,0,0,0-2.818.184,3.842,3.842,0,0,0-2.942,2.587c-.349,1.159-.6,2.354-.829,3.542-.251,1.281-.475,2.572-.638,3.868a5.275,5.275,0,0,0-.1,2.223,5.525,5.525,0,0,0,.9,1.307,9.065,9.065,0,0,1,1.613,6.437,15.541,15.541,0,0,1-.753,3.385A20.113,20.113,0,0,0,511.1,74.9a34.177,34.177,0,0,1-1.889,5.777c-1.555,4.389-3.023,8.815-4.808,13.119-.766,1.846-1.591,3.67-2.5,5.449-2.163,4.226-5.332,9.075-9.531,11.875a8.294,8.294,0,0,0-1.72.908l-.277.2c-5.031,2.314-12.371,1.642-16.4-2.15a14.528,14.528,0,0,1-4.042-11.837,36.431,36.431,0,0,1,3.927-14.182,49.321,49.321,0,0,1,3.765-5.532,73.8,73.8,0,0,1,7.681-9.279,25.816,25.816,0,0,0,5.8-9.551,18.134,18.134,0,0,0,1.076-5.131l.012-.011c.136.073.148.259.139.413-.035.548-.591,3.49-.644,4.424a18.924,18.924,0,0,0,1.21-7.165,19.934,19.934,0,0,0-.113-3.778,12.484,12.484,0,0,0-1.86-5.031A11.8,11.8,0,0,0,490.3,41.9c-1.767-3.492-5.483-5.789-9.155-6.967-.221-.093-.439-.19-.663-.274s-.483-.158-.724-.238q-.366-.331-.724-.681a5.725,5.725,0,0,0-3.711-1.668,23.782,23.782,0,0,0-6.528.131,18.758,18.758,0,0,0-5.382,1.837c-2.035,1.076-2.7,4.02-2.077,6.1a6,6,0,0,1,.5,2.083c-.021.318-.1.7.14.91a.826.826,0,0,0,.361.155q1.444.361,2.888.724c-.358.73-1.3.9-1.971,1.367a3.3,3.3,0,0,0-1.243,2.776c.015,1.037.292,3.323,1.449,3.728a2.169,2.169,0,0,0,1.464-.148c3.778-1.437,6.146-4.9,10.553-4.06,2.521.483,4.874,1.228,5.015,4.164.111,2.3-1.012,4.656-2.671,6.851-.427.43-.855.858-1.237,1.327a7.531,7.531,0,0,0-.628.862c-.233.247-.465.494-.705.733-1.508,1.051-4.066,3.591-5.5,4.52a75.748,75.748,0,0,0-6.434,4.554c-2,1.677-4.135,3.311-5.986,5.184-.7.675-1.38,1.367-2.029,2.1-12.34,14.011-9.3,39.245,11,47.308a32.794,32.794,0,0,0,16.626,2.069,64.063,64.063,0,0,0,9.363-2.523c2.032-.606,4.17-3.061,6.059-3.144-.421,3.414-2.959,7.553-.62,10.815,1.094,1.527,2.518,1.041,4.028,1.626,1.662.646,3.131,2.073,4.878,2.86a9.852,9.852,0,0,0,1.423.553,7.241,7.241,0,0,0,4.293-.334c1.549-.5,3.012-.254,4.636-.291,1.793-.041,2-.235,2.339-1.956a36.727,36.727,0,0,0,.7-4.083,34.157,34.157,0,0,0,1.795-7.209c-2.818-3-5.46-.906-9.476-1.851,1.076-4.417,2.386-8.947,3.819-13.294L520.467,95.8a2.614,2.614,0,0,0-.3.264c.034-.093.065-.187.1-.28,1.252-2.77,2.223-5.739,3.469-8.545.981-2.84,2.39-5.969,3.309-8.768l3.649-8.327c.3-1.009.721-2,1.115-2.986m-14.6,56a4.4,4.4,0,0,1-2.137,1.615,4.4,4.4,0,0,0,2.137-1.615m-6.132,1.624c-.026-.02-.062-.026-.088-.046-.009-.154-.015-.265-.017-.353,0,.088.008.2.017.353C511.009,124.759,511.046,124.766,511.072,124.785Zm-.009-.707a.314.314,0,0,0,.166-.09.314.314,0,0,1-.166.09m2.116-1.635c.477-.015.977-.02,1.47,0-.494-.02-.993-.015-1.47,0s-.931.043-1.335.07a4.618,4.618,0,0,1-.539,1.386,4.618,4.618,0,0,0,.539-1.386c.4-.027.858-.055,1.335-.07" transform="translate(234.515 16.707)" fill="#fff" fill-rule="evenodd"/>
    <path id="Контур_147" data-name="Контур 147" d="M657.464,72.2a2.2,2.2,0,0,0-1.385-1.08c-2.279-.811-5.008-.27-7.375-.175a35.417,35.417,0,0,1-5.885-.315c-4.836-.626-9.666-1.377-14.538-1.539a10.51,10.51,0,0,0-2.818.183,3.848,3.848,0,0,0-2.943,2.588c-.347,1.159-.594,2.354-.827,3.542-.251,1.281-.475,2.572-.638,3.868a5.279,5.279,0,0,0-.1,2.223,5.514,5.514,0,0,0,.9,1.307,9.074,9.074,0,0,1,1.613,6.435,15.65,15.65,0,0,1-.753,3.388,19.913,19.913,0,0,0-1.043,2.933,34.341,34.341,0,0,1-1.889,5.78c-1.555,4.389-3.023,8.813-4.808,13.116-.766,1.849-1.592,3.673-2.5,5.452-2.163,4.225-5.332,9.075-9.531,11.872a8.439,8.439,0,0,0-1.72.91c-.093.067-.184.137-.277.2-5.032,2.314-12.37,1.641-16.4-2.15A14.523,14.523,0,0,1,580.5,118.9a36.387,36.387,0,0,1,3.927-14.179,48.98,48.98,0,0,1,3.764-5.532,73.6,73.6,0,0,1,7.681-9.281,25.8,25.8,0,0,0,5.8-9.549,18.172,18.172,0,0,0,1.077-5.131l.012-.012c.136.072.148.259.139.413-.035.548-.593,3.49-.644,4.426a18.9,18.9,0,0,0,1.208-7.166,19.828,19.828,0,0,0-.111-3.78,12.432,12.432,0,0,0-1.862-5.027,11.631,11.631,0,0,0-.62-1.516c-1.767-3.492-5.485-5.789-9.155-6.967-.221-.093-.439-.19-.664-.274s-.481-.157-.724-.239q-.363-.329-.724-.679a5.725,5.725,0,0,0-3.71-1.668,23.842,23.842,0,0,0-6.528.133,18.712,18.712,0,0,0-5.382,1.837c-2.035,1.074-2.706,4.019-2.077,6.1a6,6,0,0,1,.5,2.081c-.021.321-.1.7.14.913a.836.836,0,0,0,.361.154l2.889.724c-.358.731-1.3.9-1.973,1.365a3.3,3.3,0,0,0-1.242,2.777c.014,1.037.292,3.323,1.447,3.728A2.172,2.172,0,0,0,575.5,72.4c3.777-1.438,6.146-4.9,10.553-4.06,2.52.481,4.872,1.226,5.015,4.164.111,2.3-1.013,4.654-2.671,6.848-.427.431-.856.858-1.237,1.327a7.515,7.515,0,0,0-.628.864c-.233.248-.466.5-.705.734-1.51,1.051-4.068,3.589-5.5,4.517a76.116,76.116,0,0,0-6.435,4.555c-2,1.679-4.133,3.312-5.984,5.184-.7.676-1.38,1.367-2.031,2.105-12.34,14.008-9.3,39.243,11,47.308a32.806,32.806,0,0,0,16.624,2.067,63.824,63.824,0,0,0,9.363-2.524c2.032-.606,4.171-3.059,6.06-3.143-.421,3.414-2.959,7.555-.622,10.815,1.1,1.528,2.52,1.042,4.028,1.627,1.664.646,3.132,2.072,4.88,2.858a9.967,9.967,0,0,0,1.423.555,7.266,7.266,0,0,0,4.293-.335c1.548-.5,3.012-.256,4.636-.291,1.793-.04,2-.233,2.339-1.955a37.221,37.221,0,0,0,.7-4.083,34.3,34.3,0,0,0,1.795-7.209c-2.818-3-5.46-.906-9.478-1.851,1.076-4.418,2.387-8.947,3.821-13.3l4.295-12.722a2.794,2.794,0,0,0-.3.265c.034-.1.067-.187.1-.28,1.252-2.771,2.221-5.742,3.469-8.545.981-2.843,2.389-5.97,3.309-8.769L641.26,90.8c.3-1.009.722-2,1.117-2.988.417-.669.836-1.339,1.28-1.982a19.745,19.745,0,0,1,1.391-1.912,1.771,1.771,0,0,1,1.475-.571,16.239,16.239,0,0,1,3.81.541,4.766,4.766,0,0,0,3.281-1.062,7.037,7.037,0,0,0,2.317-3.058A20.9,20.9,0,0,0,657,76.041c.229-1.036.9-2.8.466-3.844m-31.828,73.239h0a5.211,5.211,0,0,0,1.874-1.213,5.211,5.211,0,0,1-1.874,1.213m-3.995.008c-.027-.018-.062-.023-.088-.043-.006-.093-.011-.169-.014-.236,0,.067.008.143.014.236C621.579,145.421,621.614,145.426,621.641,145.444Zm3.577-2.339a7.628,7.628,0,0,1,2.693.506,7.628,7.628,0,0,0-2.693-.506,25.347,25.347,0,0,0-2.806.07c-.363,1.312-.6,1.505-.734,1.549a.457.457,0,0,0-.1.037.429.429,0,0,1,.1-.037c.136-.044.372-.238.734-1.549a25.725,25.725,0,0,1,2.806-.07" transform="translate(292.394 27.523)" fill="#fff" fill-rule="evenodd"/>
  </g>
</svg>
